<?xml version="1.0" encoding="UTF-8" standalone="no"?>
<!-- Created with Inkscape (http://www.inkscape.org/) -->

<svg
   width="145.12122mm"
   height="14.348289mm"
   viewBox="0 0 145.12122 14.348289"
   version="1.1"
   id="svg5"
   xmlns:inkscape="http://www.inkscape.org/namespaces/inkscape"
   xmlns:sodipodi="http://sodipodi.sourceforge.net/DTD/sodipodi-0.dtd"
   xmlns="http://www.w3.org/2000/svg"
   xmlns:svg="http://www.w3.org/2000/svg">
  <sodipodi:namedview
     id="namedview7"
     pagecolor="#ffffff"
     bordercolor="#000000"
     borderopacity="0.25"
     inkscape:showpageshadow="2"
     inkscape:pageopacity="0.0"
     inkscape:pagecheckerboard="0"
     inkscape:deskcolor="#d1d1d1"
     inkscape:document-units="mm"
     showgrid="false" />
  <defs
     id="defs2" />
  <g
     inkscape:label="Layer 1"
     inkscape:groupmode="layer"
     id="layer1"
     transform="translate(-34.480203,-103.10346)">
    <g
       aria-label="RABIUS SUNNY"
       transform="matrix(0.85242422,0,0,1.1731248,-1.9157192,-2.1551841)"
       id="text186-1"
       style="font-size:14.429px;font-family:Sixtyfour;-inkscape-font-specification:'Sixtyfour, Normal';text-align:center;text-anchor:middle;fill:#00d6d6;stroke-width:1.0329;stroke-dashoffset:2.9568"
       inkscape:export-filename="logo.svg"
       inkscape:export-xdpi="96"
       inkscape:export-ydpi="96">
      <path
         d="M 43.542407,101.95585 H 46.1633 q 0.394543,0 0.619996,-0.21136 0.225453,-0.21136 0.225453,-0.49318 0,-0.28182 -0.225453,-0.49318 -0.225453,-0.21136 -0.619996,-0.21136 h -2.620893 q -0.394543,0 -0.619996,0.21136 -0.225453,0.21136 -0.225453,0.49318 0,0.28182 0.225453,0.49318 0.225453,0.21136 0.619996,0.21136 z m 7.2145,0 H 53.3778 q 0.394543,0 0.619996,-0.21136 0.225453,-0.21136 0.225453,-0.49318 0,-0.28182 -0.225453,-0.49318 -0.225453,-0.21136 -0.619996,-0.21136 h -2.620893 q -0.394543,0 -0.619996,0.21136 -0.225453,0.21136 -0.225453,0.49318 0,0.28182 0.225453,0.49318 0.225453,0.21136 0.619996,0.21136 z m -7.2145,-1.80362 H 46.1633 q 0.394543,0 0.619996,-0.211367 0.225453,-0.211362 0.225453,-0.493179 0,-0.281816 -0.225453,-0.493178 -0.225453,-0.211363 -0.619996,-0.211363 h -2.620893 q -0.394543,0 -0.619996,0.211363 -0.225453,0.211362 -0.225453,0.493178 0,0.281817 0.225453,0.493179 0.225453,0.211367 0.619996,0.211367 z m 5.410875,0 h 2.620893 q 0.394543,0 0.619996,-0.211367 0.225453,-0.211362 0.225453,-0.493179 0,-0.281816 -0.225453,-0.493178 -0.225453,-0.211363 -0.619996,-0.211363 h -2.620893 q -0.394543,0 -0.619996,0.211363 -0.225453,0.211362 -0.225453,0.493178 0,0.281817 0.225453,0.493179 0.225453,0.211367 0.619996,0.211367 z M 43.542407,98.3486 h 6.228143 q 0.394543,0 0.619996,-0.211362 0.225453,-0.211362 0.225453,-0.493179 0,-0.281816 -0.225453,-0.493178 -0.225453,-0.211363 -0.619996,-0.211363 h -6.228143 q -0.394543,0 -0.619996,0.211363 -0.225453,0.211362 -0.225453,0.493178 0,0.281817 0.225453,0.493179 0.225453,0.211362 0.619996,0.211362 z m 0,-1.803624 h 8.031768 q 0.394543,0 0.619996,-0.211363 0.225453,-0.211362 0.225453,-0.493179 0,-0.281816 -0.225453,-0.493178 -0.225453,-0.211363 -0.619996,-0.211363 h -8.031768 q -0.394543,0 -0.619996,0.211363 -0.225453,0.211362 -0.225453,0.493178 0,0.281817 0.225453,0.493179 0.225453,0.211363 0.619996,0.211363 z m 0,-1.803625 H 46.1633 q 0.394543,0 0.619996,-0.211363 0.225453,-0.211362 0.225453,-0.493178 0,-0.281817 -0.225453,-0.493179 -0.225453,-0.211363 -0.619996,-0.211363 h -2.620893 q -0.394543,0 -0.619996,0.211363 -0.225453,0.211362 -0.225453,0.493179 0,0.281816 0.225453,0.493178 0.225453,0.211363 0.619996,0.211363 z m 7.2145,0 H 53.3778 q 0.394543,0 0.619996,-0.211363 0.225453,-0.211362 0.225453,-0.493178 0,-0.281817 -0.225453,-0.493179 -0.225453,-0.211363 -0.619996,-0.211363 h -2.620893 q -0.394543,0 -0.619996,0.211363 -0.225453,0.211362 -0.225453,0.493179 0,0.281816 0.225453,0.493178 0.225453,0.211363 0.619996,0.211363 z m -7.2145,-1.803625 H 46.1633 q 0.394543,0 0.619996,-0.211363 0.225453,-0.211362 0.225453,-0.493178 0,-0.281817 -0.225453,-0.493179 -0.225453,-0.211362 -0.619996,-0.211362 h -2.620893 q -0.394543,0 -0.619996,0.211362 -0.225453,0.211362 -0.225453,0.493179 0,0.281816 0.225453,0.493178 0.225453,0.211363 0.619996,0.211363 z m 7.2145,0 H 53.3778 q 0.394543,0 0.619996,-0.211363 0.225453,-0.211362 0.225453,-0.493178 0,-0.281817 -0.225453,-0.493179 -0.225453,-0.211362 -0.619996,-0.211362 h -2.620893 q -0.394543,0 -0.619996,0.211362 -0.225453,0.211362 -0.225453,0.493179 0,0.281816 0.225453,0.493178 0.225453,0.211363 0.619996,0.211363 z m -7.2145,-1.803625 h 8.031768 q 0.394543,0 0.619996,-0.211363 0.225453,-0.211362 0.225453,-0.493178 0,-0.281817 -0.225453,-0.493179 -0.225453,-0.211362 -0.619996,-0.211362 h -8.031768 q -0.394543,0 -0.619996,0.211362 -0.225453,0.211362 -0.225453,0.493179 0,0.281816 0.225453,0.493178 0.225453,0.211363 0.619996,0.211363 z"
         id="path1079" />
      <path
         d="M 57.971407,101.95585 H 60.5923 q 0.394543,0 0.619996,-0.21136 0.225453,-0.21136 0.225453,-0.49318 0,-0.28182 -0.225453,-0.49318 -0.225453,-0.21136 -0.619996,-0.21136 h -2.620893 q -0.394543,0 -0.619996,0.21136 -0.225453,0.21136 -0.225453,0.49318 0,0.28182 0.225453,0.49318 0.225453,0.21136 0.619996,0.21136 z m 7.2145,0 H 67.8068 q 0.394543,0 0.619996,-0.21136 0.225453,-0.21136 0.225453,-0.49318 0,-0.28182 -0.225453,-0.49318 -0.225453,-0.21136 -0.619996,-0.21136 h -2.620893 q -0.394543,0 -0.619996,0.21136 -0.225453,0.21136 -0.225453,0.49318 0,0.28182 0.225453,0.49318 0.225453,0.21136 0.619996,0.21136 z m -7.2145,-1.80362 H 60.5923 q 0.394543,0 0.619996,-0.211367 0.225453,-0.211362 0.225453,-0.493179 0,-0.281816 -0.225453,-0.493178 -0.225453,-0.211363 -0.619996,-0.211363 h -2.620893 q -0.394543,0 -0.619996,0.211363 -0.225453,0.211362 -0.225453,0.493178 0,0.281817 0.225453,0.493179 0.225453,0.211367 0.619996,0.211367 z m 7.2145,0 H 67.8068 q 0.394543,0 0.619996,-0.211367 0.225453,-0.211362 0.225453,-0.493179 0,-0.281816 -0.225453,-0.493178 -0.225453,-0.211363 -0.619996,-0.211363 h -2.620893 q -0.394543,0 -0.619996,0.211363 -0.225453,0.211362 -0.225453,0.493178 0,0.281817 0.225453,0.493179 0.225453,0.211367 0.619996,0.211367 z m -7.2145,-1.80363 H 60.5923 q 0.394543,0 0.619996,-0.211362 0.225453,-0.211362 0.225453,-0.493179 0,-0.281816 -0.225453,-0.493178 -0.225453,-0.211363 -0.619996,-0.211363 h -2.620893 q -0.394543,0 -0.619996,0.211363 -0.225453,0.211362 -0.225453,0.493178 0,0.281817 0.225453,0.493179 0.225453,0.211362 0.619996,0.211362 z m 7.2145,0 H 67.8068 q 0.394543,0 0.619996,-0.211362 0.225453,-0.211362 0.225453,-0.493179 0,-0.281816 -0.225453,-0.493178 -0.225453,-0.211363 -0.619996,-0.211363 h -2.620893 q -0.394543,0 -0.619996,0.211363 -0.225453,0.211362 -0.225453,0.493178 0,0.281817 0.225453,0.493179 0.225453,0.211362 0.619996,0.211362 z m -7.2145,-1.803624 H 67.8068 q 0.394543,0 0.619996,-0.211363 0.225453,-0.211362 0.225453,-0.493179 0,-0.281816 -0.225453,-0.493178 -0.225453,-0.211363 -0.619996,-0.211363 h -9.835393 q -0.394543,0 -0.619996,0.211363 -0.225453,0.211362 -0.225453,0.493178 0,0.281817 0.225453,0.493179 0.225453,0.211363 0.619996,0.211363 z m 0,-1.803625 H 60.5923 q 0.394543,0 0.619996,-0.211363 0.225453,-0.211362 0.225453,-0.493178 0,-0.281817 -0.225453,-0.493179 -0.225453,-0.211363 -0.619996,-0.211363 h -2.620893 q -0.394543,0 -0.619996,0.211363 -0.225453,0.211362 -0.225453,0.493179 0,0.281816 0.225453,0.493178 0.225453,0.211363 0.619996,0.211363 z m 7.2145,0 H 67.8068 q 0.394543,0 0.619996,-0.211363 0.225453,-0.211362 0.225453,-0.493178 0,-0.281817 -0.225453,-0.493179 -0.225453,-0.211363 -0.619996,-0.211363 h -2.620893 q -0.394543,0 -0.619996,0.211363 -0.225453,0.211362 -0.225453,0.493179 0,0.281816 0.225453,0.493178 0.225453,0.211363 0.619996,0.211363 z m -5.410875,-1.803625 h 6.228143 q 0.394543,0 0.619996,-0.211363 0.225453,-0.211362 0.225453,-0.493178 0,-0.281817 -0.225453,-0.493179 -0.225453,-0.211362 -0.619996,-0.211362 h -6.228143 q -0.394543,0 -0.619996,0.211362 -0.225453,0.211362 -0.225453,0.493179 0,0.281816 0.225453,0.493178 0.225453,0.211363 0.619996,0.211363 z m 1.803625,-1.803625 h 2.620893 q 0.394543,0 0.619996,-0.211363 0.225453,-0.211362 0.225453,-0.493178 0,-0.281817 -0.225453,-0.493179 -0.225453,-0.211362 -0.619996,-0.211362 h -2.620893 q -0.394543,0 -0.619996,0.211362 -0.225453,0.211362 -0.225453,0.493179 0,0.281816 0.225453,0.493178 0.225453,0.211363 0.619996,0.211363 z"
         id="path1081" />
      <path
         d="m 72.400407,101.95585 h 8.031768 q 0.394543,0 0.619996,-0.21136 0.225453,-0.21136 0.225453,-0.49318 0,-0.28182 -0.225453,-0.49318 -0.225453,-0.21136 -0.619996,-0.21136 h -8.031768 q -0.394543,0 -0.619996,0.21136 -0.225453,0.21136 -0.225453,0.49318 0,0.28182 0.225453,0.49318 0.225453,0.21136 0.619996,0.21136 z m 0,-1.80362 H 75.0213 q 0.394543,0 0.619996,-0.211367 0.225453,-0.211362 0.225453,-0.493179 0,-0.281816 -0.225453,-0.493178 -0.225453,-0.211363 -0.619996,-0.211363 h -2.620893 q -0.394543,0 -0.619996,0.211363 -0.225453,0.211362 -0.225453,0.493178 0,0.281817 0.225453,0.493179 0.225453,0.211367 0.619996,0.211367 z m 7.2145,0 H 82.2358 q 0.394543,0 0.619996,-0.211367 0.225453,-0.211362 0.225453,-0.493179 0,-0.281816 -0.225453,-0.493178 -0.225453,-0.211363 -0.619996,-0.211363 h -2.620893 q -0.394543,0 -0.619996,0.211363 -0.225453,0.211362 -0.225453,0.493178 0,0.281817 0.225453,0.493179 0.225453,0.211367 0.619996,0.211367 z m -7.2145,-1.80363 H 75.0213 q 0.394543,0 0.619996,-0.211362 0.225453,-0.211362 0.225453,-0.493179 0,-0.281816 -0.225453,-0.493178 -0.225453,-0.211363 -0.619996,-0.211363 h -2.620893 q -0.394543,0 -0.619996,0.211363 -0.225453,0.211362 -0.225453,0.493178 0,0.281817 0.225453,0.493179 0.225453,0.211362 0.619996,0.211362 z m 7.2145,0 H 82.2358 q 0.394543,0 0.619996,-0.211362 0.225453,-0.211362 0.225453,-0.493179 0,-0.281816 -0.225453,-0.493178 -0.225453,-0.211363 -0.619996,-0.211363 h -2.620893 q -0.394543,0 -0.619996,0.211363 -0.225453,0.211362 -0.225453,0.493178 0,0.281817 0.225453,0.493179 0.225453,0.211362 0.619996,0.211362 z m -7.2145,-1.803624 h 8.031768 q 0.394543,0 0.619996,-0.211363 0.225453,-0.211362 0.225453,-0.493179 0,-0.281816 -0.225453,-0.493178 -0.225453,-0.211363 -0.619996,-0.211363 h -8.031768 q -0.394543,0 -0.619996,0.211363 -0.225453,0.211362 -0.225453,0.493178 0,0.281817 0.225453,0.493179 0.225453,0.211363 0.619996,0.211363 z m 0,-1.803625 H 75.0213 q 0.394543,0 0.619996,-0.211363 0.225453,-0.211362 0.225453,-0.493178 0,-0.281817 -0.225453,-0.493179 -0.225453,-0.211363 -0.619996,-0.211363 h -2.620893 q -0.394543,0 -0.619996,0.211363 -0.225453,0.211362 -0.225453,0.493179 0,0.281816 0.225453,0.493178 0.225453,0.211363 0.619996,0.211363 z m 7.2145,0 H 82.2358 q 0.394543,0 0.619996,-0.211363 0.225453,-0.211362 0.225453,-0.493178 0,-0.281817 -0.225453,-0.493179 -0.225453,-0.211363 -0.619996,-0.211363 h -2.620893 q -0.394543,0 -0.619996,0.211363 -0.225453,0.211362 -0.225453,0.493179 0,0.281816 0.225453,0.493178 0.225453,0.211363 0.619996,0.211363 z m -7.2145,-1.803625 H 75.0213 q 0.394543,0 0.619996,-0.211363 0.225453,-0.211362 0.225453,-0.493178 0,-0.281817 -0.225453,-0.493179 -0.225453,-0.211362 -0.619996,-0.211362 h -2.620893 q -0.394543,0 -0.619996,0.211362 -0.225453,0.211362 -0.225453,0.493179 0,0.281816 0.225453,0.493178 0.225453,0.211363 0.619996,0.211363 z m 7.2145,0 H 82.2358 q 0.394543,0 0.619996,-0.211363 0.225453,-0.211362 0.225453,-0.493178 0,-0.281817 -0.225453,-0.493179 -0.225453,-0.211362 -0.619996,-0.211362 h -2.620893 q -0.394543,0 -0.619996,0.211362 -0.225453,0.211362 -0.225453,0.493179 0,0.281816 0.225453,0.493178 0.225453,0.211363 0.619996,0.211363 z m -7.2145,-1.803625 h 8.031768 q 0.394543,0 0.619996,-0.211363 0.225453,-0.211362 0.225453,-0.493178 0,-0.281817 -0.225453,-0.493179 -0.225453,-0.211362 -0.619996,-0.211362 h -8.031768 q -0.394543,0 -0.619996,0.211362 -0.225453,0.211362 -0.225453,0.493179 0,0.281816 0.225453,0.493178 0.225453,0.211363 0.619996,0.211363 z"
         id="path1083" />
      <path
         d="m 88.633031,101.95585 h 6.228143 q 0.394542,0 0.619996,-0.21136 0.225453,-0.21136 0.225453,-0.49318 0,-0.28182 -0.225453,-0.49318 -0.225454,-0.21136 -0.619996,-0.21136 h -6.228143 q -0.394543,0 -0.619996,0.21136 -0.225453,0.21136 -0.225453,0.49318 0,0.28182 0.225453,0.49318 0.225453,0.21136 0.619996,0.21136 z m 1.803625,-1.80362 h 2.620893 q 0.394543,0 0.619996,-0.211367 0.225453,-0.211362 0.225453,-0.493179 0,-0.281816 -0.225453,-0.493178 -0.225453,-0.211363 -0.619996,-0.211363 h -2.620893 q -0.394543,0 -0.619996,0.211363 -0.225453,0.211362 -0.225453,0.493178 0,0.281817 0.225453,0.493179 0.225453,0.211367 0.619996,0.211367 z m 0,-1.80363 h 2.620893 q 0.394543,0 0.619996,-0.211362 0.225453,-0.211362 0.225453,-0.493179 0,-0.281816 -0.225453,-0.493178 -0.225453,-0.211363 -0.619996,-0.211363 h -2.620893 q -0.394543,0 -0.619996,0.211363 -0.225453,0.211362 -0.225453,0.493178 0,0.281817 0.225453,0.493179 0.225453,0.211362 0.619996,0.211362 z m 0,-1.803624 h 2.620893 q 0.394543,0 0.619996,-0.211363 0.225453,-0.211362 0.225453,-0.493179 0,-0.281816 -0.225453,-0.493178 -0.225453,-0.211363 -0.619996,-0.211363 h -2.620893 q -0.394543,0 -0.619996,0.211363 -0.225453,0.211362 -0.225453,0.493178 0,0.281817 0.225453,0.493179 0.225453,0.211363 0.619996,0.211363 z m 0,-1.803625 h 2.620893 q 0.394543,0 0.619996,-0.211363 0.225453,-0.211362 0.225453,-0.493178 0,-0.281817 -0.225453,-0.493179 -0.225453,-0.211363 -0.619996,-0.211363 h -2.620893 q -0.394543,0 -0.619996,0.211363 -0.225453,0.211362 -0.225453,0.493179 0,0.281816 0.225453,0.493178 0.225453,0.211363 0.619996,0.211363 z m 0,-1.803625 h 2.620893 q 0.394543,0 0.619996,-0.211363 0.225453,-0.211362 0.225453,-0.493178 0,-0.281817 -0.225453,-0.493179 -0.225453,-0.211362 -0.619996,-0.211362 h -2.620893 q -0.394543,0 -0.619996,0.211362 -0.225453,0.211362 -0.225453,0.493179 0,0.281816 0.225453,0.493178 0.225453,0.211363 0.619996,0.211363 z m -1.803625,-1.803625 h 6.228143 q 0.394542,0 0.619996,-0.211363 0.225453,-0.211362 0.225453,-0.493178 0,-0.281817 -0.225453,-0.493179 -0.225454,-0.211362 -0.619996,-0.211362 h -6.228143 q -0.394543,0 -0.619996,0.211362 -0.225453,0.211362 -0.225453,0.493179 0,0.281816 0.225453,0.493178 0.225453,0.211363 0.619996,0.211363 z"
         id="path1085" />
      <path
         d="m 103.06203,101.95585 h 6.22814 q 0.39455,0 0.62,-0.21136 0.22545,-0.21136 0.22545,-0.49318 0,-0.28182 -0.22545,-0.49318 -0.22545,-0.21136 -0.62,-0.21136 h -6.22814 q -0.39454,0 -0.61999,0.21136 -0.22546,0.21136 -0.22546,0.49318 0,0.28182 0.22546,0.49318 0.22545,0.21136 0.61999,0.21136 z m -1.80362,-1.80362 h 2.62089 q 0.39454,0 0.62,-0.211367 0.22545,-0.211362 0.22545,-0.493179 0,-0.281816 -0.22545,-0.493178 -0.22546,-0.211363 -0.62,-0.211363 h -2.62089 q -0.39455,0 -0.62,0.211363 -0.22545,0.211362 -0.22545,0.493178 0,0.281817 0.22545,0.493179 0.22545,0.211367 0.62,0.211367 z m 7.2145,0 h 2.62089 q 0.39454,0 0.62,-0.211367 0.22545,-0.211362 0.22545,-0.493179 0,-0.281816 -0.22545,-0.493178 -0.22546,-0.211363 -0.62,-0.211363 h -2.62089 q -0.39455,0 -0.62,0.211363 -0.22545,0.211362 -0.22545,0.493178 0,0.281817 0.22545,0.493179 0.22545,0.211367 0.62,0.211367 z m -7.2145,-1.80363 h 2.62089 q 0.39454,0 0.62,-0.211362 0.22545,-0.211362 0.22545,-0.493179 0,-0.281816 -0.22545,-0.493178 -0.22546,-0.211363 -0.62,-0.211363 h -2.62089 q -0.39455,0 -0.62,0.211363 -0.22545,0.211362 -0.22545,0.493178 0,0.281817 0.22545,0.493179 0.22545,0.211362 0.62,0.211362 z m 7.2145,0 h 2.62089 q 0.39454,0 0.62,-0.211362 0.22545,-0.211362 0.22545,-0.493179 0,-0.281816 -0.22545,-0.493178 -0.22546,-0.211363 -0.62,-0.211363 h -2.62089 q -0.39455,0 -0.62,0.211363 -0.22545,0.211362 -0.22545,0.493178 0,0.281817 0.22545,0.493179 0.22545,0.211362 0.62,0.211362 z m -7.2145,-1.803624 h 2.62089 q 0.39454,0 0.62,-0.211363 0.22545,-0.211362 0.22545,-0.493179 0,-0.281816 -0.22545,-0.493178 -0.22546,-0.211363 -0.62,-0.211363 h -2.62089 q -0.39455,0 -0.62,0.211363 -0.22545,0.211362 -0.22545,0.493178 0,0.281817 0.22545,0.493179 0.22545,0.211363 0.62,0.211363 z m 7.2145,0 h 2.62089 q 0.39454,0 0.62,-0.211363 0.22545,-0.211362 0.22545,-0.493179 0,-0.281816 -0.22545,-0.493178 -0.22546,-0.211363 -0.62,-0.211363 h -2.62089 q -0.39455,0 -0.62,0.211363 -0.22545,0.211362 -0.22545,0.493178 0,0.281817 0.22545,0.493179 0.22545,0.211363 0.62,0.211363 z m -7.2145,-1.803625 h 2.62089 q 0.39454,0 0.62,-0.211363 0.22545,-0.211362 0.22545,-0.493178 0,-0.281817 -0.22545,-0.493179 -0.22546,-0.211363 -0.62,-0.211363 h -2.62089 q -0.39455,0 -0.62,0.211363 -0.22545,0.211362 -0.22545,0.493179 0,0.281816 0.22545,0.493178 0.22545,0.211363 0.62,0.211363 z m 7.2145,0 h 2.62089 q 0.39454,0 0.62,-0.211363 0.22545,-0.211362 0.22545,-0.493178 0,-0.281817 -0.22545,-0.493179 -0.22546,-0.211363 -0.62,-0.211363 h -2.62089 q -0.39455,0 -0.62,0.211363 -0.22545,0.211362 -0.22545,0.493179 0,0.281816 0.22545,0.493178 0.22545,0.211363 0.62,0.211363 z m -7.2145,-1.803625 h 2.62089 q 0.39454,0 0.62,-0.211363 0.22545,-0.211362 0.22545,-0.493178 0,-0.281817 -0.22545,-0.493179 -0.22546,-0.211362 -0.62,-0.211362 h -2.62089 q -0.39455,0 -0.62,0.211362 -0.22545,0.211362 -0.22545,0.493179 0,0.281816 0.22545,0.493178 0.22545,0.211363 0.62,0.211363 z m 7.2145,0 h 2.62089 q 0.39454,0 0.62,-0.211363 0.22545,-0.211362 0.22545,-0.493178 0,-0.281817 -0.22545,-0.493179 -0.22546,-0.211362 -0.62,-0.211362 h -2.62089 q -0.39455,0 -0.62,0.211362 -0.22545,0.211362 -0.22545,0.493179 0,0.281816 0.22545,0.493178 0.22545,0.211363 0.62,0.211363 z m -7.2145,-1.803625 h 2.62089 q 0.39454,0 0.62,-0.211363 0.22545,-0.211362 0.22545,-0.493178 0,-0.281817 -0.22545,-0.493179 -0.22546,-0.211362 -0.62,-0.211362 h -2.62089 q -0.39455,0 -0.62,0.211362 -0.22545,0.211362 -0.22545,0.493179 0,0.281816 0.22545,0.493178 0.22545,0.211363 0.62,0.211363 z m 7.2145,0 h 2.62089 q 0.39454,0 0.62,-0.211363 0.22545,-0.211362 0.22545,-0.493178 0,-0.281817 -0.22545,-0.493179 -0.22546,-0.211362 -0.62,-0.211362 h -2.62089 q -0.39455,0 -0.62,0.211362 -0.22545,0.211362 -0.22545,0.493179 0,0.281816 0.22545,0.493178 0.22545,0.211363 0.62,0.211363 z"
         id="path1087" />
      <path
         d="m 117.49103,101.95585 h 6.22814 q 0.39454,0 0.62,-0.21136 0.22545,-0.21136 0.22545,-0.49318 0,-0.28182 -0.22545,-0.49318 -0.22546,-0.21136 -0.62,-0.21136 h -6.22814 q -0.39454,0 -0.62,0.21136 -0.22545,0.21136 -0.22545,0.49318 0,0.28182 0.22545,0.49318 0.22546,0.21136 0.62,0.21136 z m -1.80363,-1.80362 h 2.6209 q 0.39454,0 0.61999,-0.211367 0.22546,-0.211362 0.22546,-0.493179 0,-0.281816 -0.22546,-0.493178 -0.22545,-0.211363 -0.61999,-0.211363 h -2.6209 q -0.39454,0 -0.61999,0.211363 -0.22546,0.211362 -0.22546,0.493178 0,0.281817 0.22546,0.493179 0.22545,0.211367 0.61999,0.211367 z m 7.2145,0 h 2.6209 q 0.39454,0 0.61999,-0.211367 0.22546,-0.211362 0.22546,-0.493179 0,-0.281816 -0.22546,-0.493178 -0.22545,-0.211363 -0.61999,-0.211363 h -2.6209 q -0.39454,0 -0.61999,0.211363 -0.22546,0.211362 -0.22546,0.493178 0,0.281817 0.22546,0.493179 0.22545,0.211367 0.61999,0.211367 z m 0,-1.80363 h 2.6209 q 0.39454,0 0.61999,-0.211362 0.22546,-0.211362 0.22546,-0.493179 0,-0.281816 -0.22546,-0.493178 -0.22545,-0.211363 -0.61999,-0.211363 h -2.6209 q -0.39454,0 -0.61999,0.211363 -0.22546,0.211362 -0.22546,0.493178 0,0.281817 0.22546,0.493179 0.22545,0.211362 0.61999,0.211362 z m -5.41087,-1.803624 h 6.22814 q 0.39454,0 0.62,-0.211363 0.22545,-0.211362 0.22545,-0.493179 0,-0.281816 -0.22545,-0.493178 -0.22546,-0.211363 -0.62,-0.211363 h -6.22814 q -0.39454,0 -0.62,0.211363 -0.22545,0.211362 -0.22545,0.493178 0,0.281817 0.22545,0.493179 0.22546,0.211363 0.62,0.211363 z m -1.80363,-1.803625 h 2.6209 q 0.39454,0 0.61999,-0.211363 0.22546,-0.211362 0.22546,-0.493178 0,-0.281817 -0.22546,-0.493179 -0.22545,-0.211363 -0.61999,-0.211363 h -2.6209 q -0.39454,0 -0.61999,0.211363 -0.22546,0.211362 -0.22546,0.493179 0,0.281816 0.22546,0.493178 0.22545,0.211363 0.61999,0.211363 z m 0,-1.803625 h 2.6209 q 0.39454,0 0.61999,-0.211363 0.22546,-0.211362 0.22546,-0.493178 0,-0.281817 -0.22546,-0.493179 -0.22545,-0.211362 -0.61999,-0.211362 h -2.6209 q -0.39454,0 -0.61999,0.211362 -0.22546,0.211362 -0.22546,0.493179 0,0.281816 0.22546,0.493178 0.22545,0.211363 0.61999,0.211363 z m 7.2145,0 h 2.6209 q 0.39454,0 0.61999,-0.211363 0.22546,-0.211362 0.22546,-0.493178 0,-0.281817 -0.22546,-0.493179 -0.22545,-0.211362 -0.61999,-0.211362 h -2.6209 q -0.39454,0 -0.61999,0.211362 -0.22546,0.211362 -0.22546,0.493179 0,0.281816 0.22546,0.493178 0.22545,0.211363 0.61999,0.211363 z m -5.41087,-1.803625 h 6.22814 q 0.39454,0 0.62,-0.211363 0.22545,-0.211362 0.22545,-0.493178 0,-0.281817 -0.22545,-0.493179 -0.22546,-0.211362 -0.62,-0.211362 h -6.22814 q -0.39454,0 -0.62,0.211362 -0.22545,0.211362 -0.22545,0.493179 0,0.281816 0.22545,0.493178 0.22546,0.211363 0.62,0.211363 z"
         id="path1089" />
      <path
         d="m 146.34903,101.95585 h 6.22814 q 0.39455,0 0.62,-0.21136 0.22545,-0.21136 0.22545,-0.49318 0,-0.28182 -0.22545,-0.49318 -0.22545,-0.21136 -0.62,-0.21136 h -6.22814 q -0.39454,0 -0.62,0.21136 -0.22545,0.21136 -0.22545,0.49318 0,0.28182 0.22545,0.49318 0.22546,0.21136 0.62,0.21136 z m -1.80362,-1.80362 h 2.62089 q 0.39454,0 0.61999,-0.211367 0.22546,-0.211362 0.22546,-0.493179 0,-0.281816 -0.22546,-0.493178 -0.22545,-0.211363 -0.61999,-0.211363 h -2.62089 q -0.39455,0 -0.62,0.211363 -0.22545,0.211362 -0.22545,0.493178 0,0.281817 0.22545,0.493179 0.22545,0.211367 0.62,0.211367 z m 7.2145,0 h 2.62089 q 0.39454,0 0.61999,-0.211367 0.22546,-0.211362 0.22546,-0.493179 0,-0.281816 -0.22546,-0.493178 -0.22545,-0.211363 -0.61999,-0.211363 h -2.62089 q -0.39455,0 -0.62,0.211363 -0.22545,0.211362 -0.22545,0.493178 0,0.281817 0.22545,0.493179 0.22545,0.211367 0.62,0.211367 z m 0,-1.80363 h 2.62089 q 0.39454,0 0.61999,-0.211362 0.22546,-0.211362 0.22546,-0.493179 0,-0.281816 -0.22546,-0.493178 -0.22545,-0.211363 -0.61999,-0.211363 h -2.62089 q -0.39455,0 -0.62,0.211363 -0.22545,0.211362 -0.22545,0.493178 0,0.281817 0.22545,0.493179 0.22545,0.211362 0.62,0.211362 z m -5.41088,-1.803624 h 6.22814 q 0.39455,0 0.62,-0.211363 0.22545,-0.211362 0.22545,-0.493179 0,-0.281816 -0.22545,-0.493178 -0.22545,-0.211363 -0.62,-0.211363 h -6.22814 q -0.39454,0 -0.62,0.211363 -0.22545,0.211362 -0.22545,0.493178 0,0.281817 0.22545,0.493179 0.22546,0.211363 0.62,0.211363 z m -1.80362,-1.803625 h 2.62089 q 0.39454,0 0.61999,-0.211363 0.22546,-0.211362 0.22546,-0.493178 0,-0.281817 -0.22546,-0.493179 -0.22545,-0.211363 -0.61999,-0.211363 h -2.62089 q -0.39455,0 -0.62,0.211363 -0.22545,0.211362 -0.22545,0.493179 0,0.281816 0.22545,0.493178 0.22545,0.211363 0.62,0.211363 z m 0,-1.803625 h 2.62089 q 0.39454,0 0.61999,-0.211363 0.22546,-0.211362 0.22546,-0.493178 0,-0.281817 -0.22546,-0.493179 -0.22545,-0.211362 -0.61999,-0.211362 h -2.62089 q -0.39455,0 -0.62,0.211362 -0.22545,0.211362 -0.22545,0.493179 0,0.281816 0.22545,0.493178 0.22545,0.211363 0.62,0.211363 z m 7.2145,0 h 2.62089 q 0.39454,0 0.61999,-0.211363 0.22546,-0.211362 0.22546,-0.493178 0,-0.281817 -0.22546,-0.493179 -0.22545,-0.211362 -0.61999,-0.211362 h -2.62089 q -0.39455,0 -0.62,0.211362 -0.22545,0.211362 -0.22545,0.493179 0,0.281816 0.22545,0.493178 0.22545,0.211363 0.62,0.211363 z m -5.41088,-1.803625 h 6.22814 q 0.39455,0 0.62,-0.211363 0.22545,-0.211362 0.22545,-0.493178 0,-0.281817 -0.22545,-0.493179 -0.22545,-0.211362 -0.62,-0.211362 h -6.22814 q -0.39454,0 -0.62,0.211362 -0.22545,0.211362 -0.22545,0.493179 0,0.281816 0.22545,0.493178 0.22546,0.211363 0.62,0.211363 z"
         id="path1091" />
      <path
         d="m 160.77803,101.95585 h 6.22814 q 0.39455,0 0.62,-0.21136 0.22545,-0.21136 0.22545,-0.49318 0,-0.28182 -0.22545,-0.49318 -0.22545,-0.21136 -0.62,-0.21136 h -6.22814 q -0.39454,0 -0.61999,0.21136 -0.22546,0.21136 -0.22546,0.49318 0,0.28182 0.22546,0.49318 0.22545,0.21136 0.61999,0.21136 z m -1.80362,-1.80362 h 2.62089 q 0.39454,0 0.62,-0.211367 0.22545,-0.211362 0.22545,-0.493179 0,-0.281816 -0.22545,-0.493178 -0.22546,-0.211363 -0.62,-0.211363 h -2.62089 q -0.39455,0 -0.62,0.211363 -0.22545,0.211362 -0.22545,0.493178 0,0.281817 0.22545,0.493179 0.22545,0.211367 0.62,0.211367 z m 7.2145,0 h 2.62089 q 0.39454,0 0.62,-0.211367 0.22545,-0.211362 0.22545,-0.493179 0,-0.281816 -0.22545,-0.493178 -0.22546,-0.211363 -0.62,-0.211363 h -2.62089 q -0.39455,0 -0.62,0.211363 -0.22545,0.211362 -0.22545,0.493178 0,0.281817 0.22545,0.493179 0.22545,0.211367 0.62,0.211367 z m -7.2145,-1.80363 h 2.62089 q 0.39454,0 0.62,-0.211362 0.22545,-0.211362 0.22545,-0.493179 0,-0.281816 -0.22545,-0.493178 -0.22546,-0.211363 -0.62,-0.211363 h -2.62089 q -0.39455,0 -0.62,0.211363 -0.22545,0.211362 -0.22545,0.493178 0,0.281817 0.22545,0.493179 0.22545,0.211362 0.62,0.211362 z m 7.2145,0 h 2.62089 q 0.39454,0 0.62,-0.211362 0.22545,-0.211362 0.22545,-0.493179 0,-0.281816 -0.22545,-0.493178 -0.22546,-0.211363 -0.62,-0.211363 h -2.62089 q -0.39455,0 -0.62,0.211363 -0.22545,0.211362 -0.22545,0.493178 0,0.281817 0.22545,0.493179 0.22545,0.211362 0.62,0.211362 z m -7.2145,-1.803624 h 2.62089 q 0.39454,0 0.62,-0.211363 0.22545,-0.211362 0.22545,-0.493179 0,-0.281816 -0.22545,-0.493178 -0.22546,-0.211363 -0.62,-0.211363 h -2.62089 q -0.39455,0 -0.62,0.211363 -0.22545,0.211362 -0.22545,0.493178 0,0.281817 0.22545,0.493179 0.22545,0.211363 0.62,0.211363 z m 7.2145,0 h 2.62089 q 0.39454,0 0.62,-0.211363 0.22545,-0.211362 0.22545,-0.493179 0,-0.281816 -0.22545,-0.493178 -0.22546,-0.211363 -0.62,-0.211363 h -2.62089 q -0.39455,0 -0.62,0.211363 -0.22545,0.211362 -0.22545,0.493178 0,0.281817 0.22545,0.493179 0.22545,0.211363 0.62,0.211363 z m -7.2145,-1.803625 h 2.62089 q 0.39454,0 0.62,-0.211363 0.22545,-0.211362 0.22545,-0.493178 0,-0.281817 -0.22545,-0.493179 -0.22546,-0.211363 -0.62,-0.211363 h -2.62089 q -0.39455,0 -0.62,0.211363 -0.22545,0.211362 -0.22545,0.493179 0,0.281816 0.22545,0.493178 0.22545,0.211363 0.62,0.211363 z m 7.2145,0 h 2.62089 q 0.39454,0 0.62,-0.211363 0.22545,-0.211362 0.22545,-0.493178 0,-0.281817 -0.22545,-0.493179 -0.22546,-0.211363 -0.62,-0.211363 h -2.62089 q -0.39455,0 -0.62,0.211363 -0.22545,0.211362 -0.22545,0.493179 0,0.281816 0.22545,0.493178 0.22545,0.211363 0.62,0.211363 z m -7.2145,-1.803625 h 2.62089 q 0.39454,0 0.62,-0.211363 0.22545,-0.211362 0.22545,-0.493178 0,-0.281817 -0.22545,-0.493179 -0.22546,-0.211362 -0.62,-0.211362 h -2.62089 q -0.39455,0 -0.62,0.211362 -0.22545,0.211362 -0.22545,0.493179 0,0.281816 0.22545,0.493178 0.22545,0.211363 0.62,0.211363 z m 7.2145,0 h 2.62089 q 0.39454,0 0.62,-0.211363 0.22545,-0.211362 0.22545,-0.493178 0,-0.281817 -0.22545,-0.493179 -0.22546,-0.211362 -0.62,-0.211362 h -2.62089 q -0.39455,0 -0.62,0.211362 -0.22545,0.211362 -0.22545,0.493179 0,0.281816 0.22545,0.493178 0.22545,0.211363 0.62,0.211363 z m -7.2145,-1.803625 h 2.62089 q 0.39454,0 0.62,-0.211363 0.22545,-0.211362 0.22545,-0.493178 0,-0.281817 -0.22545,-0.493179 -0.22546,-0.211362 -0.62,-0.211362 h -2.62089 q -0.39455,0 -0.62,0.211362 -0.22545,0.211362 -0.22545,0.493179 0,0.281816 0.22545,0.493178 0.22545,0.211363 0.62,0.211363 z m 7.2145,0 h 2.62089 q 0.39454,0 0.62,-0.211363 0.22545,-0.211362 0.22545,-0.493178 0,-0.281817 -0.22545,-0.493179 -0.22546,-0.211362 -0.62,-0.211362 h -2.62089 q -0.39455,0 -0.62,0.211362 -0.22545,0.211362 -0.22545,0.493179 0,0.281816 0.22545,0.493178 0.22545,0.211363 0.62,0.211363 z"
         id="path1093" />
      <path
         d="m 173.4034,101.95585 h 2.62089 q 0.39455,0 0.62,-0.21136 0.22545,-0.21136 0.22545,-0.49318 0,-0.28182 -0.22545,-0.49318 -0.22545,-0.21136 -0.62,-0.21136 h -2.62089 q -0.39454,0 -0.62,0.21136 -0.22545,0.21136 -0.22545,0.49318 0,0.28182 0.22545,0.49318 0.22546,0.21136 0.62,0.21136 z m 7.2145,0 h 2.62089 q 0.39455,0 0.62,-0.21136 0.22545,-0.21136 0.22545,-0.49318 0,-0.28182 -0.22545,-0.49318 -0.22545,-0.21136 -0.62,-0.21136 h -2.62089 q -0.39454,0 -0.62,0.21136 -0.22545,0.21136 -0.22545,0.49318 0,0.28182 0.22545,0.49318 0.22546,0.21136 0.62,0.21136 z m -7.2145,-1.80362 h 2.62089 q 0.39455,0 0.62,-0.211367 0.22545,-0.211362 0.22545,-0.493179 0,-0.281816 -0.22545,-0.493178 -0.22545,-0.211363 -0.62,-0.211363 h -2.62089 q -0.39454,0 -0.62,0.211363 -0.22545,0.211362 -0.22545,0.493178 0,0.281817 0.22545,0.493179 0.22546,0.211367 0.62,0.211367 z m 7.2145,0 h 2.62089 q 0.39455,0 0.62,-0.211367 0.22545,-0.211362 0.22545,-0.493179 0,-0.281816 -0.22545,-0.493178 -0.22545,-0.211363 -0.62,-0.211363 h -2.62089 q -0.39454,0 -0.62,0.211363 -0.22545,0.211362 -0.22545,0.493178 0,0.281817 0.22545,0.493179 0.22546,0.211367 0.62,0.211367 z m -7.2145,-1.80363 h 2.62089 q 0.39455,0 0.62,-0.211362 0.22545,-0.211362 0.22545,-0.493179 0,-0.281816 -0.22545,-0.493178 -0.22545,-0.211363 -0.62,-0.211363 h -2.62089 q -0.39454,0 -0.62,0.211363 -0.22545,0.211362 -0.22545,0.493178 0,0.281817 0.22545,0.493179 0.22546,0.211362 0.62,0.211362 z m 7.2145,0 h 2.62089 q 0.39455,0 0.62,-0.211362 0.22545,-0.211362 0.22545,-0.493179 0,-0.281816 -0.22545,-0.493178 -0.22545,-0.211363 -0.62,-0.211363 h -2.62089 q -0.39454,0 -0.62,0.211363 -0.22545,0.211362 -0.22545,0.493178 0,0.281817 0.22545,0.493179 0.22546,0.211362 0.62,0.211362 z m -7.2145,-1.803624 h 2.62089 q 0.39455,0 0.62,-0.211363 0.22545,-0.211362 0.22545,-0.493179 0,-0.281816 -0.22545,-0.493178 -0.22545,-0.211363 -0.62,-0.211363 h -2.62089 q -0.39454,0 -0.62,0.211363 -0.22545,0.211362 -0.22545,0.493178 0,0.281817 0.22545,0.493179 0.22546,0.211363 0.62,0.211363 z m 5.41087,0 h 4.42452 q 0.39455,0 0.62,-0.211363 0.22545,-0.211362 0.22545,-0.493179 0,-0.281816 -0.22545,-0.493178 -0.22545,-0.211363 -0.62,-0.211363 h -4.42452 q -0.39454,0 -0.61999,0.211363 -0.22545,0.211362 -0.22545,0.493178 0,0.281817 0.22545,0.493179 0.22545,0.211363 0.61999,0.211363 z m -5.41087,-1.803625 h 9.83539 q 0.39455,0 0.62,-0.211363 0.22545,-0.211362 0.22545,-0.493178 0,-0.281817 -0.22545,-0.493179 -0.22545,-0.211363 -0.62,-0.211363 h -9.83539 q -0.39454,0 -0.62,0.211363 -0.22545,0.211362 -0.22545,0.493179 0,0.281816 0.22545,0.493178 0.22546,0.211363 0.62,0.211363 z m 0,-1.803625 h 4.42452 q 0.39454,0 0.61999,-0.211363 0.22546,-0.211362 0.22546,-0.493178 0,-0.281817 -0.22546,-0.493179 -0.22545,-0.211362 -0.61999,-0.211362 h -4.42452 q -0.39454,0 -0.62,0.211362 -0.22545,0.211362 -0.22545,0.493179 0,0.281816 0.22545,0.493178 0.22546,0.211363 0.62,0.211363 z m 7.2145,0 h 2.62089 q 0.39455,0 0.62,-0.211363 0.22545,-0.211362 0.22545,-0.493178 0,-0.281817 -0.22545,-0.493179 -0.22545,-0.211362 -0.62,-0.211362 h -2.62089 q -0.39454,0 -0.62,0.211362 -0.22545,0.211362 -0.22545,0.493179 0,0.281816 0.22545,0.493178 0.22546,0.211363 0.62,0.211363 z m -7.2145,-1.803625 h 2.62089 q 0.39455,0 0.62,-0.211363 0.22545,-0.211362 0.22545,-0.493178 0,-0.281817 -0.22545,-0.493179 -0.22545,-0.211362 -0.62,-0.211362 h -2.62089 q -0.39454,0 -0.62,0.211362 -0.22545,0.211362 -0.22545,0.493179 0,0.281816 0.22545,0.493178 0.22546,0.211363 0.62,0.211363 z m 7.2145,0 h 2.62089 q 0.39455,0 0.62,-0.211363 0.22545,-0.211362 0.22545,-0.493178 0,-0.281817 -0.22545,-0.493179 -0.22545,-0.211362 -0.62,-0.211362 h -2.62089 q -0.39454,0 -0.62,0.211362 -0.22545,0.211362 -0.22545,0.493179 0,0.281816 0.22545,0.493178 0.22546,0.211363 0.62,0.211363 z"
         id="path1095" />
      <path
         d="m 187.8324,101.95585 h 2.62089 q 0.39455,0 0.62,-0.21136 0.22545,-0.21136 0.22545,-0.49318 0,-0.28182 -0.22545,-0.49318 -0.22545,-0.21136 -0.62,-0.21136 h -2.62089 q -0.39454,0 -0.62,0.21136 -0.22545,0.21136 -0.22545,0.49318 0,0.28182 0.22545,0.49318 0.22546,0.21136 0.62,0.21136 z m 7.2145,0 h 2.62089 q 0.39455,0 0.62,-0.21136 0.22545,-0.21136 0.22545,-0.49318 0,-0.28182 -0.22545,-0.49318 -0.22545,-0.21136 -0.62,-0.21136 h -2.62089 q -0.39454,0 -0.62,0.21136 -0.22545,0.21136 -0.22545,0.49318 0,0.28182 0.22545,0.49318 0.22546,0.21136 0.62,0.21136 z m -7.2145,-1.80362 h 2.62089 q 0.39455,0 0.62,-0.211367 0.22545,-0.211362 0.22545,-0.493179 0,-0.281816 -0.22545,-0.493178 -0.22545,-0.211363 -0.62,-0.211363 h -2.62089 q -0.39454,0 -0.62,0.211363 -0.22545,0.211362 -0.22545,0.493178 0,0.281817 0.22545,0.493179 0.22546,0.211367 0.62,0.211367 z m 7.2145,0 h 2.62089 q 0.39455,0 0.62,-0.211367 0.22545,-0.211362 0.22545,-0.493179 0,-0.281816 -0.22545,-0.493178 -0.22545,-0.211363 -0.62,-0.211363 h -2.62089 q -0.39454,0 -0.62,0.211363 -0.22545,0.211362 -0.22545,0.493178 0,0.281817 0.22545,0.493179 0.22546,0.211367 0.62,0.211367 z m -7.2145,-1.80363 h 2.62089 q 0.39455,0 0.62,-0.211362 0.22545,-0.211362 0.22545,-0.493179 0,-0.281816 -0.22545,-0.493178 -0.22545,-0.211363 -0.62,-0.211363 h -2.62089 q -0.39454,0 -0.62,0.211363 -0.22545,0.211362 -0.22545,0.493178 0,0.281817 0.22545,0.493179 0.22546,0.211362 0.62,0.211362 z m 7.2145,0 h 2.62089 q 0.39455,0 0.62,-0.211362 0.22545,-0.211362 0.22545,-0.493179 0,-0.281816 -0.22545,-0.493178 -0.22545,-0.211363 -0.62,-0.211363 h -2.62089 q -0.39454,0 -0.62,0.211363 -0.22545,0.211362 -0.22545,0.493178 0,0.281817 0.22545,0.493179 0.22546,0.211362 0.62,0.211362 z m -7.2145,-1.803624 h 2.62089 q 0.39455,0 0.62,-0.211363 0.22545,-0.211362 0.22545,-0.493179 0,-0.281816 -0.22545,-0.493178 -0.22545,-0.211363 -0.62,-0.211363 h -2.62089 q -0.39454,0 -0.62,0.211363 -0.22545,0.211362 -0.22545,0.493178 0,0.281817 0.22545,0.493179 0.22546,0.211363 0.62,0.211363 z m 5.41088,0 h 4.42451 q 0.39455,0 0.62,-0.211363 0.22545,-0.211362 0.22545,-0.493179 0,-0.281816 -0.22545,-0.493178 -0.22545,-0.211363 -0.62,-0.211363 h -4.42451 q -0.39455,0 -0.62,0.211363 -0.22545,0.211362 -0.22545,0.493178 0,0.281817 0.22545,0.493179 0.22545,0.211363 0.62,0.211363 z m -5.41088,-1.803625 h 9.83539 q 0.39455,0 0.62,-0.211363 0.22545,-0.211362 0.22545,-0.493178 0,-0.281817 -0.22545,-0.493179 -0.22545,-0.211363 -0.62,-0.211363 h -9.83539 q -0.39454,0 -0.62,0.211363 -0.22545,0.211362 -0.22545,0.493179 0,0.281816 0.22545,0.493178 0.22546,0.211363 0.62,0.211363 z m 0,-1.803625 h 4.42452 q 0.39454,0 0.61999,-0.211363 0.22546,-0.211362 0.22546,-0.493178 0,-0.281817 -0.22546,-0.493179 -0.22545,-0.211362 -0.61999,-0.211362 h -4.42452 q -0.39454,0 -0.62,0.211362 -0.22545,0.211362 -0.22545,0.493179 0,0.281816 0.22545,0.493178 0.22546,0.211363 0.62,0.211363 z m 7.2145,0 h 2.62089 q 0.39455,0 0.62,-0.211363 0.22545,-0.211362 0.22545,-0.493178 0,-0.281817 -0.22545,-0.493179 -0.22545,-0.211362 -0.62,-0.211362 h -2.62089 q -0.39454,0 -0.62,0.211362 -0.22545,0.211362 -0.22545,0.493179 0,0.281816 0.22545,0.493178 0.22546,0.211363 0.62,0.211363 z m -7.2145,-1.803625 h 2.62089 q 0.39455,0 0.62,-0.211363 0.22545,-0.211362 0.22545,-0.493178 0,-0.281817 -0.22545,-0.493179 -0.22545,-0.211362 -0.62,-0.211362 h -2.62089 q -0.39454,0 -0.62,0.211362 -0.22545,0.211362 -0.22545,0.493179 0,0.281816 0.22545,0.493178 0.22546,0.211363 0.62,0.211363 z m 7.2145,0 h 2.62089 q 0.39455,0 0.62,-0.211363 0.22545,-0.211362 0.22545,-0.493178 0,-0.281817 -0.22545,-0.493179 -0.22545,-0.211362 -0.62,-0.211362 h -2.62089 q -0.39454,0 -0.62,0.211362 -0.22545,0.211362 -0.22545,0.493179 0,0.281816 0.22545,0.493178 0.22546,0.211363 0.62,0.211363 z"
         id="path1097" />
      <path
         d="m 205.86865,101.95585 h 2.62089 q 0.39455,0 0.62,-0.21136 0.22545,-0.21136 0.22545,-0.49318 0,-0.28182 -0.22545,-0.49318 -0.22545,-0.21136 -0.62,-0.21136 h -2.62089 q -0.39454,0 -0.61999,0.21136 -0.22546,0.21136 -0.22546,0.49318 0,0.28182 0.22546,0.49318 0.22545,0.21136 0.61999,0.21136 z m 0,-1.80362 h 2.62089 q 0.39455,0 0.62,-0.211367 0.22545,-0.211362 0.22545,-0.493179 0,-0.281816 -0.22545,-0.493178 -0.22545,-0.211363 -0.62,-0.211363 h -2.62089 q -0.39454,0 -0.61999,0.211363 -0.22546,0.211362 -0.22546,0.493178 0,0.281817 0.22546,0.493179 0.22545,0.211367 0.61999,0.211367 z m 0,-1.80363 h 2.62089 q 0.39455,0 0.62,-0.211362 0.22545,-0.211362 0.22545,-0.493179 0,-0.281816 -0.22545,-0.493178 -0.22545,-0.211363 -0.62,-0.211363 h -2.62089 q -0.39454,0 -0.61999,0.211363 -0.22546,0.211362 -0.22546,0.493178 0,0.281817 0.22546,0.493179 0.22545,0.211362 0.61999,0.211362 z m -1.80362,-1.803624 h 6.22814 q 0.39454,0 0.62,-0.211363 0.22545,-0.211362 0.22545,-0.493179 0,-0.281816 -0.22545,-0.493178 -0.22546,-0.211363 -0.62,-0.211363 h -6.22814 q -0.39455,0 -0.62,0.211363 -0.22545,0.211362 -0.22545,0.493178 0,0.281817 0.22545,0.493179 0.22545,0.211363 0.62,0.211363 z m -1.80363,-1.803625 h 2.62089 q 0.39455,0 0.62,-0.211363 0.22545,-0.211362 0.22545,-0.493178 0,-0.281817 -0.22545,-0.493179 -0.22545,-0.211363 -0.62,-0.211363 h -2.62089 q -0.39454,0 -0.61999,0.211363 -0.22546,0.211362 -0.22546,0.493179 0,0.281816 0.22546,0.493178 0.22545,0.211363 0.61999,0.211363 z m 7.2145,0 h 2.62089 q 0.39455,0 0.62,-0.211363 0.22545,-0.211362 0.22545,-0.493178 0,-0.281817 -0.22545,-0.493179 -0.22545,-0.211363 -0.62,-0.211363 h -2.62089 q -0.39454,0 -0.61999,0.211363 -0.22546,0.211362 -0.22546,0.493179 0,0.281816 0.22546,0.493178 0.22545,0.211363 0.61999,0.211363 z m -7.2145,-1.803625 h 2.62089 q 0.39455,0 0.62,-0.211363 0.22545,-0.211362 0.22545,-0.493178 0,-0.281817 -0.22545,-0.493179 -0.22545,-0.211362 -0.62,-0.211362 h -2.62089 q -0.39454,0 -0.61999,0.211362 -0.22546,0.211362 -0.22546,0.493179 0,0.281816 0.22546,0.493178 0.22545,0.211363 0.61999,0.211363 z m 7.2145,0 h 2.62089 q 0.39455,0 0.62,-0.211363 0.22545,-0.211362 0.22545,-0.493178 0,-0.281817 -0.22545,-0.493179 -0.22545,-0.211362 -0.62,-0.211362 h -2.62089 q -0.39454,0 -0.61999,0.211362 -0.22546,0.211362 -0.22546,0.493179 0,0.281816 0.22546,0.493178 0.22545,0.211363 0.61999,0.211363 z m -7.2145,-1.803625 h 2.62089 q 0.39455,0 0.62,-0.211363 0.22545,-0.211362 0.22545,-0.493178 0,-0.281817 -0.22545,-0.493179 -0.22545,-0.211362 -0.62,-0.211362 h -2.62089 q -0.39454,0 -0.61999,0.211362 -0.22546,0.211362 -0.22546,0.493179 0,0.281816 0.22546,0.493178 0.22545,0.211363 0.61999,0.211363 z m 7.2145,0 h 2.62089 q 0.39455,0 0.62,-0.211363 0.22545,-0.211362 0.22545,-0.493178 0,-0.281817 -0.22545,-0.493179 -0.22545,-0.211362 -0.62,-0.211362 h -2.62089 q -0.39454,0 -0.61999,0.211362 -0.22546,0.211362 -0.22546,0.493179 0,0.281816 0.22546,0.493178 0.22545,0.211363 0.61999,0.211363 z"
         id="path1099" />
    </g>
  </g>
</svg>
